<?xml version="1.0" encoding="UTF-8"?>
<svg width="16" height="16" version="1.1" viewBox="0 0 16 16" xmlns="http://www.w3.org/2000/svg">
 <path d="m2 13.5 2.1154-5.0769c0.2329-0.55897 0.77906-0.92308 1.3846-0.92308h9.25c0.27614 0 0.5 0.22386 0.5 0.5 0 0.066013-0.013072 0.13137-0.038462 0.19231l-1.8269 4.3846c-0.2329 0.55897-0.77906 0.92308-1.3846 0.92308h-9c-0.82843 0-1.5-0.67157-1.5-1.5v-8c0-0.82843 0.67157-1.5 1.5-1.5h3.2929c0.13261 0 0.25979 0.052678 0.35355 0.14645l1.8536 1.8536h3.5c0.82843 0 1.5 0.67157 1.5 1.5v0.5" fill="none" stroke="#9aa7b0"/>
</svg>
