<?xml version="1.0" encoding="UTF-8" standalone="no"?>
<!-- Created with Inkscape (http://www.inkscape.org/) -->

<svg
   width="512"
   height="512"
   viewBox="0 0 135.46666 135.46667"
   version="1.1"
   id="svg56593"
   xmlns="http://www.w3.org/2000/svg"
   xmlns:svg="http://www.w3.org/2000/svg">
  <defs
     id="defs56590" />
  <g
     id="layer1">
    <path
       id="rect1035"
       style="font-variation-settings:normal;vector-effect:none;fill:#000d8e;fill-opacity:1;stroke:none;stroke-width:9.40957;stroke-linecap:butt;stroke-linejoin:round;stroke-miterlimit:4;stroke-dasharray:none;stroke-dashoffset:0;stroke-opacity:1;-inkscape-stroke:none;stop-color:#0f0f0f;opacity:1;stop-opacity:1"
       d="M 6.8672653,0.06354445 H 128.69335 c 3.75005,0 6.76906,3.01104205 6.76906,6.75121015 V 128.66544 c 0,3.74016 -3.01901,6.7498 -6.76906,6.75118 l -122.0001756,0.0452 c -3.7500552,0.001 -6.69619099,-2.96173 -6.69317540912,-6.7019 L 0.09816573,6.8152665 C 0.10030444,3.0750984 3.1171674,0.06405638 6.8672225,0.06405638 Z" />
    <path
       style="fill:#4b82fe;fill-opacity:1;stroke:none;stroke-width:1.58629;stroke-linecap:butt;stroke-linejoin:miter;stroke-miterlimit:4;stroke-dasharray:none;stroke-opacity:1"
       d="M 9.6995362,128.93919 130.29817,4.278726 129.70513,128.61271 Z"
       id="path38410-3-9-8" />
    <path
       style="fill:#99d9ff;fill-opacity:1;stroke:none;stroke-width:1.65367;stroke-linecap:butt;stroke-linejoin:miter;stroke-miterlimit:4;stroke-dasharray:none;stroke-opacity:1"
       d="M 21.302075,123.00604 129.37893,50.196498 129.70511,128.61271 Z"
       id="path38412-6-1-9" />
    <path
       style="fill:#abfefd;fill-opacity:1;stroke:none;stroke-width:1.55259;stroke-linecap:butt;stroke-linejoin:miter;stroke-miterlimit:4;stroke-dasharray:none;stroke-opacity:1"
       d="m 21.302075,123.00604 108.367675,-43.838607 0.0353,49.445277 z"
       id="path38414-7-2-7" />
    <path
       style="fill:#4b82fe;fill-opacity:1;stroke:none;stroke-width:1.58629;stroke-linecap:butt;stroke-linejoin:miter;stroke-miterlimit:4;stroke-dasharray:none;stroke-opacity:1"
       d="m 21.302075,123.00604 108.439175,-19.89199 -0.015,19.85698 z"
       id="path38416-5-7-3" />
    <path
       style="font-variation-settings:normal;vector-effect:none;fill:#3541b2;fill-opacity:1;stroke:none;stroke-width:9.40957;stroke-linecap:butt;stroke-linejoin:round;stroke-miterlimit:4;stroke-dasharray:none;stroke-dashoffset:0;stroke-opacity:1;-inkscape-stroke:none;stop-color:#0f0f0f;opacity:1;stop-opacity:1"
       d="M 22.297238,90.488191 93.932184,20.413056 22.50959,20.584129 Z"
       id="path38420-5-9-1" />
    <path
       style="color:#000000;font-variation-settings:normal;vector-effect:none;fill:#3541b2;fill-opacity:1;stroke:none;stroke-width:9.40957;stroke-linecap:butt;stroke-linejoin:round;stroke-miterlimit:4;stroke-dasharray:none;stroke-dashoffset:0;stroke-opacity:1;-inkscape-stroke:none;stop-color:#0f0f0f"
       d="M 129.47763,14.79216 121.1387,7.1682257 12.500368,114.20149 c 0,0 -10.6449106,10.98408 -11.51797442,12.15671 -0.90431032,1.04659 -0.9432776,2.9193 -0.9432776,2.9193 -0.0021387,3.44269 2.81377112,6.19217 6.25529612,6.18917 L 129.25591,135.4496 c 3.43436,-0.009 6.21379,-2.79575 6.21075,-6.23119 V 6.2311892 C 135.4688,2.7957302 132.69027,0.00714607 129.25591,2.8234103e-7 H 6.2895786 C 2.8480108,-0.00213279 0.05731639,2.7885418 0.06037475,6.2311892 L 0.01631734,114.23769 11.862242,102.00858 12.500197,12.444012 123.00361,11.990671 123.02714,123.00604 H 21.301926"
       id="path38422-6-3-2" />
  </g>
</svg>
