<svg xmlns="http://www.w3.org/2000/svg" height="32px" viewBox="0 -960 960 960" width="32px" fill="#9aa7b0"><path d="M445.28-140H202.57q-25.79 0-44.18-18.39T140-202.57v-554.86q0-25.79 18.39-44.18T202.57-820h242.71v680Zm-50.25-50.26v-579.48H202.57q-5.39 0-8.85 3.46t-3.46 8.85v554.86q0 5.39 3.46 8.85t8.85 3.46h192.46Zm120.51-325.28V-820h241.89q25.79 0 44.18 18.39T820-757.43v241.89H515.54Zm50.25-50.25h203.95v-191.64q0-5.39-3.46-8.85t-8.85-3.46H565.79v203.95ZM515.54-140v-305.28H820v242.71q0 25.79-18.39 44.18T757.43-140H515.54Zm50.25-50.26h191.64q5.39 0 8.85-3.46t3.46-8.85v-192.46H565.79v204.77ZM395.03-480Zm170.76-85.79Zm0 170.76Z"/></svg>
