<svg xmlns="http://www.w3.org/2000/svg" height="32px" viewBox="0 -960 960 960" width="32px" fill="#9aa7b0"><path d="M162.57-180q-25.79 0-44.18-18.39T100-242.57v-474.86q0-25.79 18.39-44.18T162.57-780h634.86q25.79 0 44.18 18.39T860-717.43v474.86q0 25.79-18.39 44.18T797.43-180H162.57Zm0-50.26h634.86q4.62 0 8.47-3.84 3.84-3.85 3.84-8.47v-474.86q0-4.62-3.84-8.47-3.85-3.84-8.47-3.84H162.57q-4.62 0-8.47 3.84-3.84 3.85-3.84 8.47v474.86q0 4.62 3.84 8.47 3.85 3.84 8.47 3.84ZM268.52-320h426.45L564.92-494.97 447.33-342.05l-81.07-106.51L268.52-320Zm-118.26 89.74v-499.48 499.48Z"/></svg>
